<svg width="20" height="6" viewBox="0 0 20 6" fill="none" xmlns="http://www.w3.org/2000/svg">
<path d="M4.59 3.17906C4.59 3.14906 4.58 3.11906 4.58 3.08906C4.58 3.05906 4.57 3.02906 4.56 2.99906C4.55 2.96906 4.54 2.92906 4.53 2.89906V2.88906C4.53 2.87906 4.52 2.86906 4.52 2.85906C4.52 2.84906 4.52 2.84906 4.51 2.83906C4.51 2.82906 4.5 2.81906 4.5 2.81906C4.5 2.80906 4.49 2.80906 4.49 2.79906V2.78906L4.48 2.79906C4.48 2.80906 4.47 2.80906 4.47 2.81906C4.47 2.82906 4.46 2.83906 4.46 2.83906C4.38 2.98906 4.28 3.13906 4.14 3.27906C4.13 3.29906 4.11 3.32906 4.08 3.34906C4.08 3.35906 4.08 3.37906 4.08 3.38906C4.08 3.47906 4.07 3.56906 4.05 3.65906C4.01 3.81906 3.94 3.96906 3.84 4.08906C3.83 4.09906 3.82 4.10906 3.81 4.11906C3.75 4.17906 3.69 4.23906 3.62 4.28906C3.61 4.28906 3.61 4.29906 3.6 4.29906L3.59 4.30906C3.51 4.35906 3.44 4.40906 3.36 4.44906C3.34 4.45906 3.32 4.47906 3.29 4.48906C3.28 4.49906 3.26 4.50906 3.24 4.51906C3.1 4.57906 2.96 4.61906 2.81 4.64906C2.8 4.64906 2.79 4.64906 2.78 4.65906C2.68 4.67906 2.58 4.67906 2.48 4.67906C2.45 4.67906 2.43 4.67906 2.4 4.67906C2.29 4.67906 2.2 4.65906 2.1 4.64906C2.05 4.63906 2 4.62906 1.96 4.60906C1.92 4.59906 1.88 4.57906 1.84 4.56906C1.79 4.54906 1.75 4.53906 1.71 4.51906C1.52 4.42906 1.35 4.31906 1.2 4.17906C1.01 3.99906 0.85 3.78906 0.74 3.55906C0.74 3.55906 0.74 3.55906 0.74 3.54906C0.67 3.39906 0.61 3.24906 0.58 3.07906C0.56 2.98906 0.54 2.88906 0.54 2.78906C0.54 2.77906 0.54 2.76906 0.54 2.75906C0.54 2.74906 0.54 2.74906 0.54 2.73906C0.54 2.72906 0.54 2.71906 0.54 2.70906C0.54 2.67906 0.54 2.65906 0.54 2.62906C0.54 2.59906 0.54 2.57906 0.54 2.54906V2.51906C0.54 2.49906 0.54 2.48906 0.54 2.46906C0.55 2.36906 0.56 2.26906 0.58 2.17906C0.61 2.01906 0.67 1.85906 0.74 1.70906C0.74 1.70906 0.74 1.70906 0.74 1.69906C0.85 1.48906 1.01 1.27906 1.2 1.09906C1.35 0.959062 1.52 0.849062 1.71 0.759062C1.75 0.739062 1.79 0.729063 1.83 0.709063C1.87 0.689063 1.91 0.679062 1.95 0.669062C2.01 0.659062 2.05 0.649062 2.1 0.639062C2.2 0.619062 2.29 0.599062 2.39 0.599062C2.42 0.599062 2.44 0.599062 2.47 0.599062C2.57 0.599062 2.68 0.609062 2.77 0.619062C2.78 0.619062 2.79 0.619062 2.8 0.629062C2.96 0.659062 3.1 0.699063 3.24 0.769063C3.26 0.779063 3.28 0.789062 3.3 0.799062C3.32 0.809062 3.35 0.819062 3.37 0.839062C3.45 0.879062 3.52 0.929063 3.59 0.979063C3.6 0.979063 3.6 0.989062 3.6 0.989062C3.61 0.989062 3.61 0.999063 3.62 0.999063C3.69 1.04906 3.76 1.10906 3.81 1.16906C3.82 1.17906 3.83 1.18906 3.83 1.19906C3.93 1.31906 4 1.46906 4.04 1.62906C4.06 1.71906 4.07 1.79906 4.07 1.89906C4.07 1.92906 4.07 1.94906 4.07 1.96906C4.07 1.97906 4.07 1.98906 4.07 1.98906V1.99906C4.07 2.01906 4.07 2.02906 4.06 2.04906V2.05906C4.06 2.06906 4.06 2.06906 4.06 2.07906C4.06 2.08906 4.06 2.09906 4.05 2.10906C4.05 2.10906 4.05 2.10906 4.05 2.11906C4.05 2.12906 4.05 2.13906 4.04 2.13906C4.02 2.28906 3.96 2.41906 3.89 2.53906C3.88 2.54906 3.87 2.55906 3.86 2.56906C3.85 2.57906 3.85 2.58906 3.84 2.59906C3.84 2.60906 3.83 2.60906 3.82 2.61906C3.82 2.62906 3.81 2.62906 3.81 2.63906C3.79 2.65906 3.77 2.68906 3.75 2.70906C3.75 2.71906 3.73 2.72906 3.71 2.75906C3.46 3.00906 3.15 3.18906 2.92 3.28906C2.77 3.35906 2.65 3.39906 2.6 3.41906C2.59 3.41906 2.59 3.41906 2.58 3.42906C2.57 3.42906 2.56 3.42906 2.55 3.42906C2.47 3.42906 2.4 3.36906 2.4 3.27906V3.26906V3.25906V2.96906C2.4 2.96906 2.4 2.95906 2.4 2.93906C2.4 2.87906 2.4 2.75906 2.4 2.63906V2.51906C2.4 2.43906 2.4 2.36906 2.4 2.33906C2.4 2.31906 2.4 2.30906 2.4 2.30906V2.01906V2.00906V1.99906C2.4 1.91906 2.47 1.84906 2.55 1.84906C2.56 1.84906 2.57 1.84906 2.58 1.84906C2.59 1.84906 2.59 1.84906 2.6 1.85906C2.65 1.87906 2.77 1.91906 2.92 1.98906C3.15 2.09906 3.46 2.26906 3.71 2.52906C3.72 2.52906 3.72 2.53906 3.73 2.54906C3.73 2.54906 3.74 2.52906 3.75 2.52906C3.75 2.51906 3.76 2.51906 3.76 2.51906L3.77 2.50906V2.49906C3.78 2.48906 3.78 2.48906 3.78 2.47906L3.79 2.46906C3.86 2.36906 3.9 2.24906 3.93 2.12906V2.11906V2.10906V2.08906V2.07906C3.93 2.06906 3.93 2.06906 3.93 2.05906V2.04906V2.03906C3.93 2.02906 3.93 2.00906 3.94 1.99906V1.97906V1.96906C3.68 1.71906 3.25 1.42906 2.58 1.23906C2.56 1.22906 2.54 1.22906 2.51 1.21906C2.47 1.20906 2.44 1.20906 2.4 1.20906C2.09 1.20906 1.84 1.44906 1.84 1.75906V2.63906V3.51906C1.85 3.81906 2.1 4.06906 2.4 4.06906C2.44 4.06906 2.48 4.06906 2.51 4.05906C2.54 4.04906 2.56 4.04906 2.58 4.03906C3.35 3.82906 3.8 3.47906 4.06 3.19906C4.24 2.99906 4.33 2.83906 4.36 2.78906C4.36 2.78906 4.36 2.77906 4.37 2.77906V2.76906C4.37 2.75906 4.38 2.75906 4.38 2.74906C4.39 2.73906 4.39 2.72906 4.4 2.71906C4.4 2.69906 4.41 2.69906 4.41 2.68906C4.41 2.68906 4.41 2.67906 4.42 2.67906C4.42 2.67906 4.42 2.66906 4.43 2.66906C4.43 2.65906 4.44 2.64906 4.44 2.64906C4.44 2.64906 4.44 2.64906 4.44 2.63906C4.45 2.61906 4.46 2.59906 4.47 2.57906C4.47 2.56906 4.48 2.55906 4.48 2.54906C4.49 2.53906 4.49 2.51906 4.5 2.50906C4.5 2.49906 4.51 2.48906 4.51 2.47906C4.51 2.46906 4.52 2.46906 4.52 2.45906C4.52 2.44906 4.53 2.43906 4.53 2.43906C4.53 2.42906 4.53 2.42906 4.54 2.41906C4.54 2.40906 4.55 2.39906 4.55 2.38906V2.37906C4.56 2.34906 4.57 2.30906 4.58 2.27906C4.57 2.24906 4.58 2.21906 4.58 2.18906C4.59 2.15906 4.59 2.12906 4.59 2.09906C4.59 2.07906 4.59 2.06906 4.6 2.04906C4.6 1.99906 4.61 1.94906 4.61 1.88906C4.61 1.52906 4.5 1.19906 4.32 0.929062C4.25 0.859062 4.19 0.779063 4.12 0.709063C4.09 0.679063 4.05 0.649062 4.02 0.619062C4.01 0.609062 4 0.599062 4 0.599062C4 0.599062 4 0.599062 3.99 0.599062C3.81 0.449062 3.61 0.319063 3.4 0.229063C3.12 0.109063 2.8 0.0390625 2.47 0.0390625C2.44 0.0390625 2.42 0.0390625 2.39 0.0390625C2.2 0.0490625 2.01 0.0790622 1.84 0.129062C1.59 0.199062 1.37 0.299062 1.16 0.439062C1.06 0.509062 0.96 0.579062 0.87 0.669062C0.81 0.719062 0.76 0.769062 0.71 0.829062C0.63 0.899062 0.57 0.989062 0.5 1.07906C0.45 1.14906 0.4 1.21906 0.36 1.29906C0.34 1.32906 0.33 1.35906 0.31 1.38906C0.23 1.52906 0.17 1.68906 0.12 1.83906C0.0899999 1.95906 0.06 2.08906 0.04 2.21906C0.04 2.23906 0.0299997 2.25906 0.0299997 2.27906C0.00999973 2.36906 0.01 2.44906 0 2.53906C0 2.55906 0 2.56906 0 2.58906C0 2.59906 0 2.59906 0 2.60906C0 2.61906 0 2.62906 0 2.63906C0 2.64906 0 2.65906 0 2.66906C0 2.67906 0 2.67906 0 2.68906C0 2.70906 0 2.71906 0 2.73906V2.75906C0 2.83906 0.00999998 2.91906 0.02 2.99906C0.02 3.01906 0.0299997 3.03906 0.0299997 3.05906C0.0499997 3.18906 0.0799999 3.30906 0.12 3.42906C0.17 3.59906 0.23 3.74906 0.31 3.88906C0.33 3.91906 0.34 3.94906 0.36 3.97906C0.4 4.05906 0.45 4.12906 0.5 4.19906C0.56 4.28906 0.63 4.36906 0.71 4.44906C0.76 4.50906 0.81 4.55906 0.87 4.60906C0.96 4.68906 1.06 4.76906 1.16 4.83906C1.37 4.97906 1.59 5.07906 1.84 5.14906C2.02 5.19906 2.21 5.22906 2.4 5.23906C2.43 5.23906 2.45 5.23906 2.48 5.23906C2.81 5.23906 3.13 5.16906 3.41 5.04906C3.62 4.95906 3.82 4.83906 4 4.68906C4 4.68906 4 4.68906 4.01 4.68906C4 4.67906 4.01 4.66906 4.02 4.65906C4.05 4.62906 4.09 4.59906 4.12 4.56906C4.19 4.49906 4.26 4.41906 4.31 4.33906C4.49 4.06906 4.6 3.73906 4.6 3.37906C4.6 3.32906 4.6 3.26906 4.59 3.21906C4.6 3.20906 4.6 3.19906 4.59 3.17906Z" fill="#80C7EE"/>
<path d="M5.68138 5.26172L5.91079 4.61743H6.01622L6.24465 5.26172H6.16753L5.96936 4.6799H5.95863L5.76046 5.26172H5.68138ZM5.78389 5.11138V5.05184H6.15094V5.11138H5.78389ZM6.52176 5.27343C6.47815 5.27343 6.44138 5.26204 6.41144 5.23927C6.38151 5.21649 6.35873 5.18558 6.34311 5.14653C6.32814 5.10683 6.32066 5.0616 6.32066 5.01084C6.32066 4.96072 6.32814 4.91582 6.34311 4.87612C6.35873 4.83577 6.38151 4.80421 6.41144 4.78143C6.44138 4.75865 6.47783 4.74726 6.52078 4.74726C6.55722 4.74726 6.58684 4.7554 6.60961 4.77167C6.63304 4.78729 6.65126 4.80713 6.66428 4.83121C6.67795 4.85529 6.68803 4.88035 6.69454 4.90638H6.71016C6.70756 4.88816 6.70496 4.86864 6.70235 4.84781C6.69975 4.82698 6.69747 4.80648 6.69552 4.78631C6.69422 4.76548 6.69357 4.74694 6.69357 4.73067V4.58326H6.76581V5.01279V5.26172H6.69845L6.70528 5.12993H6.69064C6.68283 5.15596 6.67176 5.18004 6.65745 5.20217C6.64378 5.22365 6.62588 5.24089 6.60376 5.25391C6.58163 5.26693 6.5543 5.27343 6.52176 5.27343ZM6.53249 5.209C6.55722 5.209 6.57935 5.20315 6.59888 5.19143C6.61905 5.17907 6.6363 5.16345 6.65061 5.14457C6.66493 5.1257 6.67567 5.1052 6.68283 5.08307C6.68999 5.06095 6.69357 5.03947 6.69357 5.01864V5.00888C6.69357 4.99522 6.69161 4.97992 6.68771 4.963C6.68446 4.94543 6.6786 4.92818 6.67014 4.91126C6.66233 4.89369 6.65192 4.87742 6.6389 4.86245C6.62653 4.84748 6.61189 4.83577 6.59497 4.82731C6.57805 4.8182 6.55853 4.81364 6.5364 4.81364C6.50516 4.81364 6.4788 4.82243 6.45733 4.84C6.4365 4.85757 6.42088 4.88165 6.41047 4.91224C6.40006 4.94218 6.39485 4.97634 6.39485 5.01474C6.39485 5.05379 6.40006 5.08796 6.41047 5.11724C6.42153 5.14588 6.43748 5.16833 6.4583 5.1846C6.47913 5.20087 6.50386 5.209 6.53249 5.209ZM7.05057 5.26172L6.86802 4.75995H6.94709L7.0945 5.19924H7.10719L7.25362 4.75995H7.33366L7.15014 5.26172H7.05057ZM7.63699 5.27343C7.59794 5.27343 7.56377 5.26758 7.53449 5.25586C7.5052 5.2435 7.48047 5.22592 7.4603 5.20315C7.44012 5.18037 7.42515 5.15336 7.41539 5.12212C7.40563 5.09088 7.40075 5.05639 7.40075 5.01864C7.40075 4.9796 7.40563 4.9438 7.41539 4.91126C7.4258 4.87807 7.44077 4.84911 7.4603 4.82438C7.47982 4.79965 7.50357 4.78078 7.53156 4.76776C7.56019 4.75409 7.59306 4.74726 7.63015 4.74726C7.66139 4.74726 7.69003 4.75279 7.71606 4.76386C7.74209 4.77427 7.76454 4.79054 7.78342 4.81267C7.80229 4.83479 7.81661 4.8631 7.82637 4.8976C7.83613 4.93144 7.84036 4.97179 7.83906 5.01864L7.44468 5.02157V4.96593L7.79416 4.963L7.76975 5.00498C7.77235 4.96203 7.7678 4.92623 7.75608 4.8976C7.74502 4.86896 7.72843 4.84748 7.7063 4.83317C7.68482 4.81885 7.65911 4.81169 7.62918 4.81169C7.59729 4.81169 7.5693 4.81983 7.54522 4.8361C7.5218 4.85237 7.50357 4.87612 7.49056 4.90736C7.47754 4.93795 7.47103 4.97472 7.47103 5.01767C7.47103 5.07949 7.4847 5.12733 7.51203 5.16117C7.54002 5.19436 7.58232 5.21096 7.63894 5.21096C7.66042 5.21096 7.67929 5.20868 7.69556 5.20412C7.71183 5.19892 7.7255 5.19176 7.73656 5.18265C7.74827 5.17354 7.75804 5.1628 7.76585 5.15043C7.77366 5.13807 7.77951 5.1244 7.78342 5.10943L7.84687 5.12505C7.84036 5.14848 7.83093 5.16963 7.81856 5.1885C7.80685 5.20673 7.7922 5.22235 7.77463 5.23536C7.75706 5.24773 7.73689 5.25716 7.71411 5.26367C7.69133 5.27018 7.66562 5.27343 7.63699 5.27343ZM7.9724 5.26172V4.9796V4.75898H8.04074L8.03 4.93567H8.04562C8.05213 4.89922 8.06124 4.86701 8.07295 4.83902C8.08532 4.81039 8.10159 4.78794 8.12176 4.77167C8.14194 4.7554 8.16634 4.74726 8.19498 4.74726C8.20214 4.74726 8.21027 4.74791 8.21938 4.74921C8.22849 4.74986 8.23858 4.75214 8.24964 4.75605L8.24476 4.83121C8.23565 4.82796 8.22622 4.82536 8.21645 4.8234C8.20734 4.82145 8.19856 4.82048 8.1901 4.82048C8.16406 4.82048 8.14194 4.82959 8.12371 4.84781C8.10549 4.86538 8.08987 4.88914 8.07686 4.91907C8.06449 4.94836 8.05375 4.9809 8.04464 5.01669V5.26172H7.9724ZM8.52685 5.27148C8.48325 5.27148 8.45071 5.25944 8.42923 5.23536C8.40841 5.21128 8.398 5.17549 8.398 5.12798V4.82145H8.32185V4.75898H8.36773C8.3827 4.75898 8.39344 4.75637 8.39995 4.75117C8.40711 4.74531 8.41134 4.73587 8.41264 4.72286L8.42143 4.64574H8.46731V4.75898H8.61764V4.82243H8.46731V5.12798C8.46731 5.15466 8.47349 5.17419 8.48585 5.18655C8.49822 5.19827 8.51579 5.20412 8.53857 5.20412C8.55093 5.20412 8.56395 5.2025 8.57762 5.19924C8.59128 5.19534 8.6056 5.18785 8.62057 5.17679V5.25196C8.60235 5.25846 8.58543 5.26335 8.56981 5.2666C8.55419 5.26985 8.53987 5.27148 8.52685 5.27148ZM8.73604 5.26172V4.75898H8.80828V5.26172H8.73604ZM8.77216 4.66721C8.75393 4.66721 8.74027 4.66363 8.73116 4.65647C8.72204 4.64867 8.71749 4.63728 8.71749 4.62231C8.71749 4.60799 8.72204 4.59693 8.73116 4.58912C8.74027 4.58131 8.75361 4.5774 8.77118 4.5774C8.7894 4.5774 8.80307 4.58131 8.81218 4.58912C8.82194 4.59628 8.82682 4.60734 8.82682 4.62231C8.82682 4.63728 8.82194 4.64867 8.81218 4.65647C8.80307 4.66363 8.78973 4.66721 8.77216 4.66721ZM9.1521 5.27343C9.11696 5.27343 9.08572 5.26953 9.05839 5.26172C9.03171 5.25391 9.00925 5.24285 8.99103 5.22853C8.97346 5.21421 8.96012 5.19696 8.95101 5.17679C8.94255 5.15661 8.93864 5.13449 8.93929 5.11041L9.00372 5.09869C9.00112 5.12277 9.00567 5.14327 9.01739 5.16019C9.02975 5.17711 9.04765 5.19013 9.07108 5.19924C9.09451 5.2077 9.12282 5.21193 9.15601 5.21193C9.19766 5.21193 9.22987 5.20477 9.25265 5.19046C9.27543 5.17614 9.28682 5.15629 9.28682 5.13091C9.28682 5.11138 9.28031 5.09609 9.2673 5.08503C9.25493 5.07396 9.23768 5.06518 9.21556 5.05867C9.19408 5.05216 9.16902 5.0463 9.14039 5.0411C9.11696 5.03589 9.09386 5.03003 9.07108 5.02353C9.0483 5.01637 9.02748 5.00758 9.0086 4.99717C8.99038 4.98676 8.97574 4.97341 8.96467 4.95714C8.95361 4.94022 8.94808 4.91907 8.94808 4.89369C8.94808 4.8631 8.95589 4.83707 8.97151 4.8156C8.98713 4.79412 9.00958 4.77752 9.03886 4.76581C9.06815 4.75344 9.10297 4.74726 9.14332 4.74726C9.18432 4.74726 9.21881 4.75377 9.24679 4.76679C9.27543 4.7798 9.29756 4.79802 9.31318 4.82145C9.3288 4.84488 9.33726 4.87221 9.33856 4.90345L9.27315 4.91712C9.27315 4.89304 9.26762 4.87319 9.25656 4.85757C9.24549 4.8413 9.22987 4.82926 9.2097 4.82145C9.18952 4.81364 9.16577 4.80974 9.13844 4.80974C9.10134 4.80974 9.07173 4.8169 9.0496 4.83121C9.02813 4.84553 9.01739 4.86506 9.01739 4.88979C9.01739 4.90866 9.02357 4.92395 9.03594 4.93567C9.04895 4.94673 9.0662 4.95552 9.08767 4.96203C9.10915 4.96788 9.1329 4.97341 9.15894 4.97862C9.18497 4.98383 9.2097 4.98968 9.23313 4.99619C9.25656 5.0027 9.27738 5.01116 9.2956 5.02157C9.31448 5.03199 9.32912 5.04565 9.33953 5.06257C9.3506 5.07949 9.35613 5.10097 9.35613 5.127C9.35613 5.16019 9.34734 5.18785 9.32977 5.20998C9.31285 5.23146 9.2891 5.2474 9.25851 5.25781C9.22792 5.26823 9.19245 5.27343 9.1521 5.27343ZM9.48439 5.26172V4.75898H9.55663V5.26172H9.48439ZM9.52051 4.66721C9.50229 4.66721 9.48862 4.66363 9.47951 4.65647C9.4704 4.64867 9.46584 4.63728 9.46584 4.62231C9.46584 4.60799 9.4704 4.59693 9.47951 4.58912C9.48862 4.58131 9.50196 4.5774 9.51954 4.5774C9.53776 4.5774 9.55143 4.58131 9.56054 4.58912C9.5703 4.59628 9.57518 4.60734 9.57518 4.62231C9.57518 4.63728 9.5703 4.64867 9.56054 4.65647C9.55143 4.66363 9.53808 4.66721 9.52051 4.66721ZM9.71889 5.26172V4.94738V4.75898H9.7882L9.77648 4.92102H9.79113C9.80089 4.88133 9.81325 4.84879 9.82822 4.8234C9.84384 4.79737 9.86336 4.77817 9.88679 4.76581C9.91022 4.75344 9.93723 4.74726 9.96782 4.74726C10.0225 4.74726 10.0638 4.76711 10.0918 4.80681C10.1204 4.84586 10.1347 4.90345 10.1347 4.9796V5.26172H10.0625V4.98448C10.0625 4.92656 10.0531 4.8836 10.0342 4.85562C10.016 4.82764 9.98864 4.81364 9.9522 4.81364C9.92031 4.81364 9.89233 4.82406 9.86825 4.84488C9.84482 4.86571 9.82659 4.89304 9.81358 4.92688C9.80056 4.96007 9.79308 4.99587 9.79113 5.03426V5.26172H9.71889ZM10.4725 5.4306C10.4204 5.4306 10.3775 5.42637 10.3436 5.41791C10.3104 5.4101 10.2857 5.39774 10.2694 5.38082C10.2532 5.36455 10.245 5.34404 10.245 5.31931C10.245 5.28938 10.2568 5.26497 10.2802 5.2461C10.3036 5.22658 10.3394 5.21291 10.3876 5.2051V5.18753C10.3524 5.18818 10.3264 5.18427 10.3095 5.17581C10.2932 5.1667 10.2851 5.15401 10.2851 5.13774C10.2851 5.12017 10.2935 5.10553 10.3104 5.09381C10.328 5.0821 10.3557 5.07103 10.3934 5.06062V5.04305C10.3544 5.04305 10.3248 5.03134 10.3046 5.00791C10.2844 4.98448 10.2743 4.95454 10.2743 4.9181C10.2743 4.88425 10.2831 4.85529 10.3007 4.83121C10.3189 4.80713 10.3446 4.78891 10.3778 4.77655C10.4116 4.76353 10.4513 4.75702 10.4969 4.75702H10.7273V4.82145L10.574 4.79705V4.81462C10.6105 4.82308 10.6388 4.8374 10.659 4.85757C10.6798 4.8771 10.6902 4.90313 10.6902 4.93567C10.6902 4.96365 10.6821 4.98838 10.6658 5.00986C10.6502 5.03068 10.6264 5.04695 10.5945 5.05867C10.5633 5.06973 10.5246 5.07526 10.4784 5.07526C10.4692 5.07526 10.4595 5.07494 10.4491 5.07429C10.4393 5.07299 10.4273 5.07103 10.4129 5.06843C10.3934 5.08015 10.3778 5.09088 10.3661 5.10065C10.3544 5.10976 10.3485 5.11854 10.3485 5.127C10.3485 5.13481 10.3541 5.141 10.3651 5.14555C10.3768 5.15011 10.3908 5.15336 10.4071 5.15531C10.424 5.15661 10.4393 5.15727 10.453 5.15727H10.5565C10.5695 5.15727 10.5857 5.15857 10.6053 5.16117C10.6248 5.16377 10.6443 5.16931 10.6638 5.17777C10.6834 5.18623 10.6996 5.19924 10.7126 5.21681C10.7263 5.23373 10.7331 5.25716 10.7331 5.2871C10.7331 5.32159 10.7227 5.34925 10.7019 5.37008C10.6811 5.39155 10.6515 5.40685 10.6131 5.41596C10.5747 5.42572 10.5278 5.4306 10.4725 5.4306ZM10.4705 5.37008C10.5148 5.37008 10.5512 5.36715 10.5799 5.36129C10.6085 5.35543 10.6297 5.346 10.6433 5.33298C10.6577 5.32062 10.6648 5.30467 10.6648 5.28515C10.6648 5.26693 10.6599 5.25293 10.6502 5.24317C10.6404 5.23276 10.6284 5.2256 10.614 5.22169C10.5997 5.21714 10.5851 5.21454 10.5701 5.21388C10.5558 5.21258 10.5434 5.21193 10.533 5.21193H10.4227C10.3811 5.22235 10.3528 5.23536 10.3378 5.25098C10.3235 5.2666 10.3163 5.2832 10.3163 5.30077C10.3163 5.32029 10.3231 5.33493 10.3368 5.3447C10.3511 5.35446 10.37 5.36097 10.3934 5.36422C10.4175 5.36812 10.4432 5.37008 10.4705 5.37008ZM10.4862 5.02353C10.5304 5.02353 10.5639 5.01474 10.5867 4.99717C10.6095 4.9796 10.6209 4.95552 10.6209 4.92493C10.6209 4.89304 10.6092 4.86668 10.5857 4.84586C10.563 4.82503 10.5285 4.81462 10.4823 4.81462C10.438 4.81462 10.4042 4.82471 10.3807 4.84488C10.3573 4.86441 10.3456 4.88979 10.3456 4.92102C10.3456 4.94185 10.3508 4.96007 10.3612 4.97569C10.3723 4.99066 10.3882 5.00237 10.409 5.01084C10.4299 5.0193 10.4556 5.02353 10.4862 5.02353ZM11.5755 5.27343C11.5423 5.27343 11.5104 5.2653 11.4799 5.24903C11.4499 5.23276 11.4216 5.21096 11.3949 5.18362C11.3689 5.15564 11.3451 5.1244 11.3237 5.08991C11.3022 5.05542 11.2836 5.01995 11.268 4.9835C11.2524 4.94641 11.2404 4.91029 11.2319 4.87514C11.2234 4.84 11.2192 4.80844 11.2192 4.78045C11.2192 4.74856 11.2251 4.7196 11.2368 4.69357C11.2485 4.66689 11.2661 4.64541 11.2895 4.62914C11.3136 4.61287 11.3442 4.60474 11.3813 4.60474C11.4138 4.60474 11.4418 4.61124 11.4652 4.62426C11.4886 4.63663 11.5062 4.65355 11.5179 4.67502C11.5303 4.6965 11.5365 4.72058 11.5365 4.74726C11.5365 4.76939 11.5313 4.79152 11.5209 4.81364C11.5104 4.83512 11.4932 4.85497 11.4691 4.87319C11.445 4.89076 11.4122 4.90541 11.3705 4.91712L11.3627 4.8976C11.4011 4.87417 11.4281 4.85171 11.4437 4.83024C11.4594 4.80811 11.4672 4.78403 11.4672 4.758C11.4672 4.73132 11.4594 4.70951 11.4437 4.69259C11.4288 4.67567 11.4076 4.66721 11.3803 4.66721C11.3588 4.66721 11.3416 4.67242 11.3285 4.68283C11.3155 4.69259 11.3058 4.70626 11.2993 4.72383C11.2934 4.74075 11.2905 4.75963 11.2905 4.78045C11.2905 4.80518 11.294 4.83284 11.3012 4.86343C11.3084 4.89337 11.3185 4.92428 11.3315 4.95617C11.3445 4.98806 11.3598 5.0193 11.3774 5.04988C11.3949 5.07982 11.4141 5.10683 11.4349 5.13091C11.4564 5.15499 11.4789 5.17419 11.5023 5.1885C11.5257 5.20217 11.5495 5.209 11.5736 5.209C11.5963 5.209 11.6139 5.20315 11.6263 5.19143C11.6393 5.17907 11.6458 5.16377 11.6458 5.14555C11.6458 5.12603 11.6386 5.10748 11.6243 5.08991C11.61 5.07169 11.5898 5.05542 11.5638 5.0411C11.5378 5.02678 11.5062 5.01604 11.4691 5.00888V4.92981H11.6956V4.99424L11.515 4.97179V4.99131C11.5801 5.00433 11.6292 5.02515 11.6624 5.05379C11.6956 5.08242 11.7122 5.11626 11.7122 5.15531C11.7122 5.17484 11.7083 5.19208 11.7005 5.20705C11.6927 5.22202 11.6819 5.23439 11.6683 5.24415C11.6552 5.25391 11.6406 5.26107 11.6243 5.26562C11.6087 5.27083 11.5924 5.27343 11.5755 5.27343ZM11.2348 5.27343C11.2003 5.27343 11.1704 5.2666 11.145 5.25293C11.1203 5.23862 11.1011 5.21974 11.0874 5.19631C11.0744 5.17288 11.0679 5.14653 11.0679 5.11724C11.0679 5.09316 11.0725 5.07103 11.0816 5.05086C11.0913 5.03068 11.105 5.01311 11.1226 4.99814C11.1408 4.98253 11.1623 4.96951 11.187 4.9591C11.2124 4.94803 11.2413 4.9399 11.2739 4.93469L11.2797 4.96691C11.2342 4.98122 11.199 5.00075 11.1743 5.02548C11.1502 5.04956 11.1382 5.07722 11.1382 5.10846C11.1382 5.12538 11.1421 5.14197 11.1499 5.15824C11.1577 5.17386 11.1697 5.18688 11.186 5.19729C11.2029 5.20705 11.2247 5.21193 11.2514 5.21193C11.2788 5.21193 11.3025 5.20608 11.3227 5.19436C11.3435 5.18265 11.3634 5.16735 11.3822 5.14848L11.4135 5.18265H11.3861C11.377 5.20022 11.3653 5.21584 11.351 5.2295C11.3367 5.24317 11.3201 5.25391 11.3012 5.26172C11.2823 5.26953 11.2602 5.27343 11.2348 5.27343ZM12.1062 5.26172V4.61743H12.2214L12.4459 5.18948H12.4508L12.6763 4.61743H12.7875V5.26172H12.7173L12.7231 4.69064H12.7163L12.4859 5.26172H12.4078L12.1784 4.68967H12.1725L12.1764 5.26172H12.1062ZM13.0716 5.27343C13.0442 5.27343 13.0195 5.26855 12.9974 5.25879C12.9752 5.24838 12.9577 5.23243 12.9446 5.21096C12.9316 5.18948 12.9251 5.1628 12.9251 5.13091C12.9251 5.10813 12.929 5.08763 12.9368 5.06941C12.9453 5.05118 12.9583 5.03557 12.9759 5.02255C12.9935 5.00888 13.0169 4.99749 13.0462 4.98838C13.0755 4.97927 13.1113 4.97211 13.1536 4.96691C13.1796 4.96365 13.2004 4.9604 13.216 4.95714C13.2317 4.95324 13.243 4.94771 13.2502 4.94055C13.258 4.93274 13.2619 4.92102 13.2619 4.90541C13.2619 4.87872 13.2528 4.85627 13.2346 4.83805C13.2164 4.81917 13.1877 4.80974 13.1487 4.80974C13.1298 4.80974 13.11 4.81299 13.0891 4.8195C13.0683 4.82601 13.0501 4.8374 13.0345 4.85367C13.0188 4.86994 13.0091 4.89304 13.0052 4.92298L12.9378 4.89857C12.9424 4.87579 12.9502 4.85529 12.9612 4.83707C12.9723 4.81885 12.9869 4.8029 13.0052 4.78924C13.0234 4.77557 13.0445 4.76516 13.0686 4.758C13.0934 4.75084 13.1207 4.74726 13.1506 4.74726C13.1916 4.74726 13.2255 4.75409 13.2522 4.76776C13.2795 4.78143 13.2997 4.80258 13.3127 4.83121C13.3263 4.8592 13.3332 4.89532 13.3332 4.93957V5.05965C13.3332 5.07917 13.3335 5.10097 13.3342 5.12505C13.3355 5.14848 13.3371 5.17223 13.339 5.19631C13.341 5.21974 13.3429 5.24154 13.3449 5.26172H13.2775C13.2756 5.23959 13.274 5.21812 13.2727 5.19729C13.2713 5.17646 13.2704 5.15564 13.2697 5.13481H13.258C13.2489 5.15889 13.2362 5.18167 13.2199 5.20315C13.2037 5.22397 13.1832 5.24089 13.1584 5.25391C13.1344 5.26693 13.1054 5.27343 13.0716 5.27343ZM13.0872 5.21193C13.1015 5.21193 13.1165 5.20965 13.1321 5.2051C13.1477 5.19989 13.1633 5.19208 13.1789 5.18167C13.1946 5.17061 13.2092 5.15629 13.2229 5.13872C13.2372 5.1205 13.2505 5.09869 13.2629 5.07331V4.97081L13.2902 4.97569C13.2798 4.98676 13.2655 4.99522 13.2473 5.00107C13.2297 5.00628 13.2098 5.01051 13.1877 5.01376C13.1656 5.01702 13.1431 5.0206 13.1204 5.0245C13.0982 5.02841 13.0777 5.03426 13.0589 5.04207C13.0406 5.04923 13.0257 5.05965 13.014 5.07331C13.0029 5.08633 12.9974 5.10455 12.9974 5.12798C12.9974 5.15596 13.0055 5.17711 13.0218 5.19143C13.0387 5.2051 13.0605 5.21193 13.0872 5.21193ZM13.4912 5.26172V4.94738V4.75898H13.5605L13.5488 4.92102H13.5634C13.5732 4.88133 13.5855 4.84879 13.6005 4.8234C13.6161 4.79737 13.6357 4.77817 13.6591 4.76581C13.6825 4.75344 13.7095 4.74726 13.7401 4.74726C13.7948 4.74726 13.8361 4.76711 13.8641 4.80681C13.8927 4.84586 13.907 4.90345 13.907 4.9796V5.26172H13.8348V4.98448C13.8348 4.92656 13.8254 4.8836 13.8065 4.85562C13.7883 4.82764 13.7609 4.81364 13.7245 4.81364C13.6926 4.81364 13.6646 4.82406 13.6405 4.84488C13.6171 4.86571 13.5989 4.89304 13.5859 4.92688C13.5729 4.96007 13.5654 4.99587 13.5634 5.03426V5.26172H13.4912ZM14.2204 5.27343C14.1657 5.27343 14.1241 5.25456 14.0954 5.21681C14.0674 5.17842 14.0535 5.12115 14.0535 5.045V4.75898H14.1267V5.04012C14.1267 5.09674 14.1355 5.13904 14.153 5.16703C14.1706 5.19436 14.1986 5.20803 14.237 5.20803C14.2578 5.20803 14.2767 5.20282 14.2936 5.19241C14.3105 5.182 14.3255 5.16768 14.3385 5.14946C14.3515 5.13058 14.3623 5.10813 14.3707 5.0821C14.3792 5.05607 14.3854 5.02743 14.3893 4.99619V4.75898H14.4605V5.04988V5.26172H14.3932L14.4039 5.09869H14.3893C14.3821 5.13904 14.3704 5.17223 14.3541 5.19827C14.3385 5.22365 14.3193 5.24252 14.2965 5.25489C14.2737 5.26725 14.2484 5.27343 14.2204 5.27343ZM14.6638 5.26172V4.89662H14.571V4.8361L14.694 4.84391V4.82731C14.6797 4.8208 14.6677 4.81202 14.6579 4.80095C14.6481 4.78989 14.6407 4.77687 14.6355 4.7619C14.6303 4.74694 14.6276 4.73099 14.6276 4.71407C14.6276 4.68804 14.6332 4.66494 14.6442 4.64476C14.656 4.62459 14.6726 4.60864 14.694 4.59693C14.7155 4.58456 14.7409 4.57838 14.7702 4.57838C14.793 4.57838 14.8135 4.58196 14.8317 4.58912C14.8505 4.59562 14.8662 4.60409 14.8785 4.6145L14.8678 4.68283C14.8561 4.67177 14.8418 4.66298 14.8248 4.65647C14.8079 4.64932 14.7907 4.64574 14.7731 4.64574C14.751 4.64574 14.7328 4.65322 14.7184 4.66819C14.7048 4.68251 14.6979 4.70496 14.6979 4.73555C14.6979 4.75117 14.6996 4.76548 14.7028 4.7785C14.7067 4.79152 14.7119 4.8029 14.7184 4.81267C14.7256 4.82178 14.7328 4.82926 14.7399 4.83512H14.8668V4.89662H14.735V5.26172H14.6638ZM15.0897 5.27343C15.0624 5.27343 15.0377 5.26855 15.0155 5.25879C14.9934 5.24838 14.9758 5.23243 14.9628 5.21096C14.9498 5.18948 14.9433 5.1628 14.9433 5.13091C14.9433 5.10813 14.9472 5.08763 14.955 5.06941C14.9635 5.05118 14.9765 5.03557 14.9941 5.02255C15.0116 5.00888 15.0351 4.99749 15.0644 4.98838C15.0936 4.97927 15.1294 4.97211 15.1717 4.96691C15.1978 4.96365 15.2186 4.9604 15.2342 4.95714C15.2498 4.95324 15.2612 4.94771 15.2684 4.94055C15.2762 4.93274 15.2801 4.92102 15.2801 4.90541C15.2801 4.87872 15.271 4.85627 15.2528 4.83805C15.2345 4.81917 15.2059 4.80974 15.1669 4.80974C15.148 4.80974 15.1281 4.81299 15.1073 4.8195C15.0865 4.82601 15.0683 4.8374 15.0526 4.85367C15.037 4.86994 15.0273 4.89304 15.0234 4.92298L14.956 4.89857C14.9605 4.87579 14.9684 4.85529 14.9794 4.83707C14.9905 4.81885 15.0051 4.8029 15.0234 4.78924C15.0416 4.77557 15.0627 4.76516 15.0868 4.758C15.1115 4.75084 15.1389 4.74726 15.1688 4.74726C15.2098 4.74726 15.2436 4.75409 15.2703 4.76776C15.2977 4.78143 15.3178 4.80258 15.3309 4.83121C15.3445 4.8592 15.3514 4.89532 15.3514 4.93957V5.05965C15.3514 5.07917 15.3517 5.10097 15.3523 5.12505C15.3536 5.14848 15.3553 5.17223 15.3572 5.19631C15.3592 5.21974 15.3611 5.24154 15.3631 5.26172H15.2957C15.2938 5.23959 15.2921 5.21812 15.2908 5.19729C15.2895 5.17646 15.2886 5.15564 15.2879 5.13481H15.2762C15.2671 5.15889 15.2544 5.18167 15.2381 5.20315C15.2218 5.22397 15.2013 5.24089 15.1766 5.25391C15.1525 5.26693 15.1236 5.27343 15.0897 5.27343ZM15.1054 5.21193C15.1197 5.21193 15.1346 5.20965 15.1503 5.2051C15.1659 5.19989 15.1815 5.19208 15.1971 5.18167C15.2127 5.17061 15.2274 5.15629 15.241 5.13872C15.2554 5.1205 15.2687 5.09869 15.2811 5.07331V4.97081L15.3084 4.97569C15.298 4.98676 15.2837 4.99522 15.2654 5.00107C15.2479 5.00628 15.228 5.01051 15.2059 5.01376C15.1838 5.01702 15.1613 5.0206 15.1385 5.0245C15.1164 5.02841 15.0959 5.03426 15.077 5.04207C15.0588 5.04923 15.0439 5.05965 15.0321 5.07331C15.0211 5.08633 15.0155 5.10455 15.0155 5.12798C15.0155 5.15596 15.0237 5.17711 15.0399 5.19143C15.0569 5.2051 15.0787 5.21193 15.1054 5.21193ZM15.7192 5.27343C15.675 5.27343 15.6379 5.26627 15.608 5.25196C15.578 5.23764 15.5539 5.21812 15.5357 5.19338C15.5175 5.16865 15.5041 5.141 15.4957 5.11041C15.4872 5.07982 15.483 5.04826 15.483 5.01572C15.483 4.97927 15.4876 4.9451 15.4967 4.91322C15.5064 4.88068 15.5207 4.85204 15.5396 4.82731C15.5591 4.80193 15.5832 4.7824 15.6119 4.76874C15.6405 4.75442 15.6743 4.74726 15.7134 4.74726C15.7505 4.74726 15.7833 4.75409 15.812 4.76776C15.8413 4.78078 15.865 4.79933 15.8832 4.8234C15.9015 4.84683 15.9129 4.87514 15.9174 4.90833L15.8481 4.92591C15.8468 4.90899 15.8413 4.89174 15.8315 4.87417C15.8217 4.85594 15.8071 4.84098 15.7876 4.82926C15.7687 4.81755 15.744 4.81169 15.7134 4.81169C15.6867 4.81169 15.6636 4.8169 15.6441 4.82731C15.6245 4.83772 15.6083 4.85237 15.5953 4.87124C15.5822 4.88946 15.5725 4.91094 15.566 4.93567C15.5595 4.9604 15.5562 4.98708 15.5562 5.01572C15.5562 5.05346 15.5617 5.08698 15.5728 5.11626C15.5845 5.14555 15.6024 5.16865 15.6265 5.18558C15.6506 5.2025 15.6818 5.21096 15.7202 5.21096C15.7475 5.21096 15.7713 5.2064 15.7915 5.19729C15.8117 5.18753 15.8276 5.17386 15.8393 5.15629C15.8517 5.13872 15.8598 5.11692 15.8637 5.09088L15.9311 5.1065C15.9259 5.13579 15.9168 5.16084 15.9037 5.18167C15.8914 5.2025 15.8758 5.21974 15.8569 5.23341C15.8387 5.24708 15.8178 5.25716 15.7944 5.26367C15.7716 5.27018 15.7466 5.27343 15.7192 5.27343ZM16.1868 5.27148C16.1432 5.27148 16.1106 5.25944 16.0892 5.23536C16.0683 5.21128 16.0579 5.17549 16.0579 5.12798V4.82145H15.9818V4.75898H16.0277C16.0426 4.75898 16.0534 4.75637 16.0599 4.75117C16.067 4.74531 16.0713 4.73587 16.0726 4.72286L16.0814 4.64574H16.1272V4.75898H16.2776V4.82243H16.1272V5.12798C16.1272 5.15466 16.1334 5.17419 16.1458 5.18655C16.1581 5.19827 16.1757 5.20412 16.1985 5.20412C16.2109 5.20412 16.2239 5.2025 16.2375 5.19924C16.2512 5.19534 16.2655 5.18785 16.2805 5.17679V5.25196C16.2623 5.25846 16.2454 5.26335 16.2297 5.2666C16.2141 5.26985 16.1998 5.27148 16.1868 5.27148ZM16.5541 5.27343C16.4994 5.27343 16.4578 5.25456 16.4292 5.21681C16.4012 5.17842 16.3872 5.12115 16.3872 5.045V4.75898H16.4604V5.04012C16.4604 5.09674 16.4692 5.13904 16.4868 5.16703C16.5043 5.19436 16.5323 5.20803 16.5707 5.20803C16.5915 5.20803 16.6104 5.20282 16.6273 5.19241C16.6442 5.182 16.6592 5.16768 16.6722 5.14946C16.6852 5.13058 16.696 5.10813 16.7044 5.0821C16.7129 5.05607 16.7191 5.02743 16.723 4.99619V4.75898H16.7943V5.04988V5.26172H16.7269L16.7376 5.09869H16.723C16.7158 5.13904 16.7041 5.17223 16.6878 5.19827C16.6722 5.22365 16.653 5.24252 16.6303 5.25489C16.6075 5.26725 16.5821 5.27343 16.5541 5.27343ZM16.9565 5.26172V4.9796V4.75898H17.0248L17.0141 4.93567H17.0297C17.0362 4.89922 17.0453 4.86701 17.057 4.83902C17.0694 4.81039 17.0857 4.78794 17.1059 4.77167C17.126 4.7554 17.1504 4.74726 17.1791 4.74726C17.1862 4.74726 17.1944 4.74791 17.2035 4.74921C17.2126 4.74986 17.2227 4.75214 17.2337 4.75605L17.2289 4.83121C17.2197 4.82796 17.2103 4.82536 17.2005 4.8234C17.1914 4.82145 17.1826 4.82048 17.1742 4.82048C17.1482 4.82048 17.126 4.82959 17.1078 4.84781C17.0896 4.86538 17.074 4.88914 17.0609 4.91907C17.0486 4.94836 17.0378 4.9809 17.0287 5.01669V5.26172H16.9565ZM17.335 5.26172V4.75898H17.4072V5.26172H17.335ZM17.3711 4.66721C17.3529 4.66721 17.3392 4.66363 17.3301 4.65647C17.321 4.64867 17.3164 4.63728 17.3164 4.62231C17.3164 4.60799 17.321 4.59693 17.3301 4.58912C17.3392 4.58131 17.3526 4.5774 17.3701 4.5774C17.3884 4.5774 17.402 4.58131 17.4111 4.58912C17.4209 4.59628 17.4258 4.60734 17.4258 4.62231C17.4258 4.63728 17.4209 4.64867 17.4111 4.65647C17.402 4.66363 17.3887 4.66721 17.3711 4.66721ZM17.5695 5.26172V4.94738V4.75898H17.6388L17.6271 4.92102H17.6417C17.6515 4.88133 17.6638 4.84879 17.6788 4.8234C17.6944 4.79737 17.714 4.77817 17.7374 4.76581C17.7608 4.75344 17.7878 4.74726 17.8184 4.74726C17.8731 4.74726 17.9144 4.76711 17.9424 4.80681C17.971 4.84586 17.9853 4.90345 17.9853 4.9796V5.26172H17.9131V4.98448C17.9131 4.92656 17.9037 4.8836 17.8848 4.85562C17.8666 4.82764 17.8392 4.81364 17.8028 4.81364C17.7709 4.81364 17.7429 4.82406 17.7188 4.84488C17.6954 4.86571 17.6772 4.89304 17.6642 4.92688C17.6512 4.96007 17.6437 4.99587 17.6417 5.03426V5.26172H17.5695ZM18.3231 5.4306C18.271 5.4306 18.2281 5.42637 18.1942 5.41791C18.161 5.4101 18.1363 5.39774 18.12 5.38082C18.1038 5.36455 18.0956 5.34404 18.0956 5.31931C18.0956 5.28938 18.1074 5.26497 18.1308 5.2461C18.1542 5.22658 18.19 5.21291 18.2382 5.2051V5.18753C18.203 5.18818 18.177 5.18427 18.1601 5.17581C18.1438 5.1667 18.1357 5.15401 18.1357 5.13774C18.1357 5.12017 18.1441 5.10553 18.161 5.09381C18.1786 5.0821 18.2063 5.07103 18.244 5.06062V5.04305C18.205 5.04305 18.1754 5.03134 18.1552 5.00791C18.135 4.98448 18.1249 4.95454 18.1249 4.9181C18.1249 4.88425 18.1337 4.85529 18.1513 4.83121C18.1695 4.80713 18.1952 4.78891 18.2284 4.77655C18.2622 4.76353 18.3019 4.75702 18.3475 4.75702H18.5779V4.82145L18.4246 4.79705V4.81462C18.4611 4.82308 18.4894 4.8374 18.5095 4.85757C18.5304 4.8771 18.5408 4.90313 18.5408 4.93567C18.5408 4.96365 18.5326 4.98838 18.5164 5.00986C18.5008 5.03068 18.477 5.04695 18.4451 5.05867C18.4139 5.06973 18.3752 5.07526 18.3289 5.07526C18.3198 5.07526 18.3101 5.07494 18.2997 5.07429C18.2899 5.07299 18.2779 5.07103 18.2635 5.06843C18.244 5.08015 18.2284 5.09088 18.2167 5.10065C18.205 5.10976 18.1991 5.11854 18.1991 5.127C18.1991 5.13481 18.2046 5.141 18.2157 5.14555C18.2274 5.15011 18.2414 5.15336 18.2577 5.15531C18.2746 5.15661 18.2899 5.15727 18.3036 5.15727H18.407C18.4201 5.15727 18.4363 5.15857 18.4559 5.16117C18.4754 5.16377 18.4949 5.16931 18.5144 5.17777C18.5339 5.18623 18.5502 5.19924 18.5632 5.21681C18.5769 5.23373 18.5837 5.25716 18.5837 5.2871C18.5837 5.32159 18.5733 5.34925 18.5525 5.37008C18.5317 5.39155 18.5021 5.40685 18.4637 5.41596C18.4253 5.42572 18.3784 5.4306 18.3231 5.4306ZM18.3211 5.37008C18.3654 5.37008 18.4018 5.36715 18.4305 5.36129C18.4591 5.35543 18.4803 5.346 18.4939 5.33298C18.5082 5.32062 18.5154 5.30467 18.5154 5.28515C18.5154 5.26693 18.5105 5.25293 18.5008 5.24317C18.491 5.23276 18.479 5.2256 18.4646 5.22169C18.4503 5.21714 18.4357 5.21454 18.4207 5.21388C18.4064 5.21258 18.394 5.21193 18.3836 5.21193H18.2733C18.2317 5.22235 18.2033 5.23536 18.1884 5.25098C18.1741 5.2666 18.1669 5.2832 18.1669 5.30077C18.1669 5.32029 18.1737 5.33493 18.1874 5.3447C18.2017 5.35446 18.2206 5.36097 18.244 5.36422C18.2681 5.36812 18.2938 5.37008 18.3211 5.37008ZM18.3368 5.02353C18.381 5.02353 18.4145 5.01474 18.4373 4.99717C18.4601 4.9796 18.4715 4.95552 18.4715 4.92493C18.4715 4.89304 18.4598 4.86668 18.4363 4.84586C18.4136 4.82503 18.3791 4.81462 18.3329 4.81462C18.2886 4.81462 18.2548 4.82471 18.2313 4.84488C18.2079 4.86441 18.1962 4.88979 18.1962 4.92102C18.1962 4.94185 18.2014 4.96007 18.2118 4.97569C18.2229 4.99066 18.2388 5.00237 18.2596 5.01084C18.2805 5.0193 18.3062 5.02353 18.3368 5.02353Z" fill="#80C7EE"/>
<path d="M18.6479 1.60938V1.27957H18.6854V1.60938H18.6479ZM18.5465 1.31305V1.27957H18.7868V1.31305H18.5465ZM18.8453 1.60938V1.27957H18.9043L19.0192 1.5724H19.0217L19.1372 1.27957H19.1941V1.60938H19.1582L19.1612 1.31705H19.1577L19.0397 1.60938H18.9998L18.8823 1.31655H18.8793L18.8813 1.60938H18.8453Z" fill="#80C7EE"/>
<path d="M18.6199 1.90969C18.6199 1.50969 18.2899 1.17969 17.8899 1.17969H15.9399V1.90969H17.4399L15.9399 3.12969C15.9399 3.39969 16.0899 3.63969 16.3099 3.75969L16.3199 3.76969C16.4199 3.82969 16.5399 3.85969 16.6699 3.85969H18.6199V3.12969H17.1099L18.6199 1.90969Z" fill="#80C7EE"/>
<path d="M7.25994 1.2C6.95994 1.15 6.66994 1.2 6.41994 1.33V0C6.01994 0 5.68994 0.33 5.68994 0.73V2.52C5.68994 3.08 6.02994 3.6 6.55994 3.78C7.55994 4.12 8.48994 3.31 8.34994 2.33C8.28994 1.81 7.77994 1.29 7.25994 1.2ZM7.16994 3.11C6.72994 3.21 6.33994 2.82 6.43994 2.38C6.48994 2.16 6.66994 1.98 6.88994 1.93C7.32994 1.83 7.71994 2.22 7.61994 2.66C7.57994 2.88 7.39994 3.06 7.16994 3.11Z" fill="#80C7EE"/>
<path d="M11.4899 1.17969C10.7499 1.17969 10.1499 1.77969 10.1499 2.51969C10.1499 3.25969 10.7499 3.85969 11.4899 3.85969C12.2299 3.85969 12.8299 3.25969 12.8299 2.51969C12.8299 1.77969 12.2299 1.17969 11.4899 1.17969ZM11.4899 3.12969C11.1499 3.12969 10.8799 2.85969 10.8799 2.51969C10.8799 2.17969 11.1499 1.90969 11.4899 1.90969C11.8299 1.90969 12.0999 2.17969 12.0999 2.51969C12.0999 2.85969 11.8299 3.12969 11.4899 3.12969Z" fill="#80C7EE"/>
<path d="M14.39 1.17969C13.65 1.17969 13.05 1.77969 13.05 2.51969C13.05 3.25969 13.65 3.85969 14.39 3.85969C15.13 3.85969 15.73 3.25969 15.73 2.51969C15.73 1.77969 15.13 1.17969 14.39 1.17969ZM14.39 3.12969C14.05 3.12969 13.78 2.85969 13.78 2.51969C13.78 2.17969 14.05 1.90969 14.39 1.90969C14.73 1.90969 15 2.17969 15 2.51969C15 2.85969 14.72 3.12969 14.39 3.12969Z" fill="#80C7EE"/>
<path d="M8.58984 2.51969V3.85969H9.31984V2.51969C9.31984 2.17969 9.58984 1.90969 9.92984 1.90969V1.17969C9.18984 1.17969 8.58984 1.77969 8.58984 2.51969Z" fill="#80C7EE"/>
</svg>
