<svg width="5" height="6" viewBox="0 0 5 6" fill="none" xmlns="http://www.w3.org/2000/svg">
<path d="M4.59 3.14C4.59 3.11 4.58 3.08 4.58 3.05C4.58 3.02 4.57 2.99 4.56 2.96C4.55 2.93 4.54 2.89 4.53 2.86V2.85C4.53 2.84 4.52 2.83 4.52 2.82C4.52 2.81 4.52 2.81 4.51 2.8C4.51 2.79 4.5 2.78 4.5 2.78C4.5 2.77 4.49 2.77 4.49 2.76V2.75L4.48 2.76C4.48 2.77 4.47 2.77 4.47 2.78C4.47 2.79 4.46 2.8 4.46 2.8C4.38 2.95 4.28 3.1 4.14 3.24C4.13 3.26 4.11 3.29 4.08 3.31C4.08 3.32 4.08 3.34 4.08 3.35C4.08 3.44 4.07 3.53 4.05 3.62C4.01 3.78 3.94 3.93 3.84 4.05C3.83 4.06 3.82 4.07 3.81 4.08C3.75 4.14 3.69 4.2 3.62 4.25C3.61 4.25 3.61 4.26 3.6 4.26L3.59 4.27C3.51 4.32 3.44 4.37 3.36 4.41C3.34 4.42 3.32 4.44 3.29 4.45C3.28 4.46 3.26 4.47 3.24 4.48C3.1 4.54 2.96 4.58 2.81 4.61C2.8 4.61 2.79 4.61 2.78 4.62C2.68 4.64 2.58 4.64 2.48 4.64C2.45 4.64 2.43 4.64 2.4 4.64C2.29 4.64 2.2 4.62 2.1 4.61C2.05 4.6 2 4.59 1.96 4.57C1.92 4.56 1.88 4.54 1.84 4.53C1.79 4.51 1.75 4.5 1.71 4.48C1.52 4.39 1.35 4.28 1.2 4.14C1.01 3.96 0.85 3.75 0.74 3.52C0.74 3.52 0.74 3.52 0.74 3.51C0.67 3.36 0.61 3.21 0.58 3.04C0.56 2.95 0.54 2.85 0.54 2.75C0.54 2.74 0.54 2.73 0.54 2.72C0.54 2.71 0.54 2.71 0.54 2.7C0.54 2.69 0.54 2.68 0.54 2.67C0.54 2.64 0.54 2.62 0.54 2.59C0.54 2.56 0.54 2.54 0.54 2.51V2.48C0.54 2.46 0.54 2.45 0.54 2.43C0.55 2.33 0.56 2.23 0.58 2.14C0.61 1.98 0.67 1.82 0.74 1.67C0.74 1.67 0.74 1.67 0.74 1.66C0.85 1.45 1.01 1.24 1.2 1.06C1.35 0.92 1.52 0.81 1.71 0.72C1.75 0.7 1.79 0.69 1.83 0.67C1.87 0.65 1.91 0.64 1.95 0.63C2.01 0.62 2.05 0.61 2.1 0.6C2.2 0.58 2.29 0.56 2.39 0.56C2.42 0.56 2.44 0.56 2.47 0.56C2.57 0.56 2.68 0.57 2.77 0.58C2.78 0.58 2.79 0.58 2.8 0.59C2.96 0.62 3.1 0.66 3.24 0.73C3.26 0.74 3.28 0.75 3.3 0.76C3.32 0.77 3.35 0.78 3.37 0.8C3.45 0.84 3.52 0.89 3.59 0.94C3.6 0.94 3.6 0.95 3.6 0.95C3.61 0.95 3.61 0.96 3.62 0.96C3.69 1.01 3.76 1.07 3.81 1.13C3.82 1.14 3.83 1.15 3.83 1.16C3.93 1.28 4 1.43 4.04 1.59C4.06 1.68 4.07 1.76 4.07 1.86C4.07 1.89 4.07 1.91 4.07 1.93C4.07 1.94 4.07 1.95 4.07 1.95V1.96C4.07 1.98 4.07 1.99 4.06 2.01V2.02C4.06 2.03 4.06 2.03 4.06 2.04C4.06 2.05 4.06 2.06 4.05 2.07C4.05 2.07 4.05 2.07 4.05 2.08C4.05 2.09 4.05 2.1 4.04 2.1C4.02 2.25 3.96 2.38 3.89 2.5C3.88 2.51 3.87 2.52 3.86 2.53C3.85 2.54 3.85 2.55 3.84 2.56C3.84 2.57 3.83 2.57 3.82 2.58C3.82 2.59 3.81 2.59 3.81 2.6C3.79 2.62 3.77 2.65 3.75 2.67C3.75 2.68 3.73 2.69 3.71 2.72C3.46 2.97 3.15 3.15 2.92 3.25C2.77 3.32 2.65 3.36 2.6 3.38C2.59 3.38 2.59 3.38 2.58 3.39C2.57 3.39 2.56 3.39 2.55 3.39C2.47 3.39 2.4 3.33 2.4 3.24V3.23V3.22V2.93C2.4 2.93 2.4 2.92 2.4 2.9C2.4 2.84 2.4 2.72 2.4 2.6V2.48C2.4 2.4 2.4 2.33 2.4 2.3C2.4 2.28 2.4 2.27 2.4 2.27V1.98V1.97V1.96C2.4 1.88 2.47 1.81 2.55 1.81C2.56 1.81 2.57 1.81 2.58 1.81C2.59 1.81 2.59 1.81 2.6 1.82C2.65 1.84 2.77 1.88 2.92 1.95C3.15 2.06 3.46 2.23 3.71 2.49C3.72 2.49 3.72 2.5 3.73 2.51C3.73 2.51 3.74 2.49 3.75 2.49C3.75 2.48 3.76 2.48 3.76 2.48L3.77 2.47V2.46C3.78 2.45 3.78 2.45 3.78 2.44L3.79 2.43C3.86 2.33 3.9 2.21 3.93 2.09V2.08V2.07V2.05V2.04C3.93 2.03 3.93 2.03 3.93 2.02V2.01V2C3.93 1.99 3.93 1.97 3.94 1.96V1.94V1.93C3.68 1.68 3.25 1.39 2.58 1.2C2.56 1.19 2.54 1.19 2.51 1.18C2.47 1.17 2.44 1.17 2.4 1.17C2.09 1.17 1.84 1.41 1.84 1.72V2.6V3.48C1.85 3.78 2.1 4.03 2.4 4.03C2.44 4.03 2.48 4.03 2.51 4.02C2.54 4.01 2.56 4.01 2.58 4C3.35 3.79 3.8 3.44 4.06 3.16C4.24 2.96 4.33 2.8 4.36 2.75C4.36 2.75 4.36 2.74 4.37 2.74V2.73C4.37 2.72 4.38 2.72 4.38 2.71C4.39 2.7 4.39 2.69 4.4 2.68C4.4 2.66 4.41 2.66 4.41 2.65C4.41 2.65 4.41 2.64 4.42 2.64C4.42 2.64 4.42 2.63 4.43 2.63C4.43 2.62 4.44 2.61 4.44 2.61C4.44 2.61 4.44 2.61 4.44 2.6C4.45 2.58 4.46 2.56 4.47 2.54C4.47 2.53 4.48 2.52 4.48 2.51C4.49 2.5 4.49 2.48 4.5 2.47C4.5 2.46 4.51 2.45 4.51 2.44C4.51 2.43 4.52 2.43 4.52 2.42C4.52 2.41 4.53 2.4 4.53 2.4C4.53 2.39 4.53 2.39 4.54 2.38C4.54 2.37 4.55 2.36 4.55 2.35V2.34C4.56 2.31 4.57 2.27 4.58 2.24C4.57 2.21 4.58 2.18 4.58 2.15C4.59 2.12 4.59 2.09 4.59 2.06C4.59 2.04 4.59 2.03 4.6 2.01C4.6 1.96 4.61 1.91 4.61 1.85C4.61 1.49 4.5 1.16 4.32 0.89C4.25 0.82 4.19 0.74 4.12 0.67C4.09 0.64 4.05 0.61 4.02 0.58C4.01 0.57 4 0.56 4 0.56C4 0.56 4 0.56 3.99 0.56C3.81 0.41 3.61 0.28 3.4 0.19C3.12 0.0700001 2.8 0 2.47 0C2.44 0 2.42 0 2.39 0C2.2 0.01 2.01 0.0399997 1.84 0.0899997C1.59 0.16 1.37 0.26 1.16 0.4C1.06 0.47 0.96 0.54 0.87 0.63C0.81 0.68 0.76 0.73 0.71 0.79C0.63 0.86 0.57 0.95 0.5 1.04C0.45 1.11 0.4 1.18 0.36 1.26C0.34 1.29 0.33 1.32 0.31 1.35C0.23 1.49 0.17 1.65 0.12 1.8C0.0899999 1.92 0.06 2.05 0.04 2.18C0.04 2.2 0.0299997 2.22 0.0299997 2.24C0.00999973 2.33 0.01 2.41 0 2.5C0 2.52 0 2.53 0 2.55C0 2.56 0 2.56 0 2.57C0 2.58 0 2.59 0 2.6C0 2.61 0 2.62 0 2.63C0 2.64 0 2.64 0 2.65C0 2.67 0 2.68 0 2.7V2.72C0 2.8 0.00999998 2.88 0.02 2.96C0.02 2.98 0.0299997 3 0.0299997 3.02C0.0499997 3.15 0.0799999 3.27 0.12 3.39C0.17 3.56 0.23 3.71 0.31 3.85C0.33 3.88 0.34 3.91 0.36 3.94C0.4 4.02 0.45 4.09 0.5 4.16C0.56 4.25 0.63 4.33 0.71 4.41C0.76 4.47 0.81 4.52 0.87 4.57C0.96 4.65 1.06 4.73 1.16 4.8C1.37 4.94 1.59 5.04 1.84 5.11C2.02 5.16 2.21 5.19 2.4 5.2C2.43 5.2 2.45 5.2 2.48 5.2C2.81 5.2 3.13 5.13 3.41 5.01C3.62 4.92 3.82 4.8 4 4.65C4 4.65 4 4.65 4.01 4.65C4 4.64 4.01 4.63 4.02 4.62C4.05 4.59 4.09 4.56 4.12 4.53C4.19 4.46 4.26 4.38 4.31 4.3C4.49 4.03 4.6 3.7 4.6 3.34C4.6 3.29 4.6 3.23 4.59 3.18C4.6 3.17 4.6 3.16 4.59 3.14Z" fill="#80C7EE"/>
</svg>
