<svg xmlns="http://www.w3.org/2000/svg" viewBox="0 0 39.16 44.91"><defs><style>.cls-1{fill:#f7f8f8;}</style></defs><g id="Layer_2" data-name="Layer 2"><g id="Layer_1-2" data-name="Layer 1"><path class="cls-1" d="M34,5.61A15.89,15.89,0,0,0,27.9,1.4,22.1,22.1,0,0,0,19.81,0,21.09,21.09,0,0,0,9.45,2.48a16.89,16.89,0,0,0-7,7.48C.83,13.28,0,17.52,0,22.65a31.92,31.92,0,0,0,1.32,9.6,18.75,18.75,0,0,0,3.84,7,16,16,0,0,0,6.13,4.24,21.81,21.81,0,0,0,8.13,1.44,22.5,22.5,0,0,0,8.1-1.4,16.69,16.69,0,0,0,6.26-4.21,18.78,18.78,0,0,0,4-7,31.94,31.94,0,0,0,1.38-9.86,32.69,32.69,0,0,0-1.32-9.76A18.77,18.77,0,0,0,34,5.61ZM27.45,30.32a8.69,8.69,0,0,1-2.84,4.44,7.63,7.63,0,0,1-4.8,1.47,8.57,8.57,0,0,1-3.94-.85,7.28,7.28,0,0,1-2.81-2.58,12.57,12.57,0,0,1-1.67-4.34,29.44,29.44,0,0,1-.55-6.07,25.59,25.59,0,0,1,1-7.64,9.17,9.17,0,0,1,2.9-4.6,7.45,7.45,0,0,1,4.77-1.53,7.56,7.56,0,0,1,4.94,1.6,9.7,9.7,0,0,1,3,4.73,26.61,26.61,0,0,1,1,7.9A25,25,0,0,1,27.45,30.32Z"/></g></g></svg>