<svg xmlns="http://www.w3.org/2000/svg" viewBox="0 0 36.33 43.08"><defs><style>.cls-1{fill:#f7f8f8;}</style></defs><g id="Layer_2" data-name="Layer 2"><g id="Layer_1-2" data-name="Layer 1"><path class="cls-1" d="M32.36,29.21A9.38,9.38,0,0,0,29,25.59,13.1,13.1,0,0,0,22.58,24v-.53A21,21,0,0,0,28,22.1a11.63,11.63,0,0,0,3.75-2.39,9.09,9.09,0,0,0,2.13-3.23,10.73,10.73,0,0,0,.67-3.82A12.21,12.21,0,0,0,33.74,8a10.36,10.36,0,0,0-2.38-3.56A13.14,13.14,0,0,0,27.71,2,19.7,19.7,0,0,0,23.07.49,28.28,28.28,0,0,0,17.68,0H0V43.08H10.45V28.26h5.29a9.82,9.82,0,0,1,3.94.66,4.85,4.85,0,0,1,2.29,2,10.71,10.71,0,0,1,1.19,3.59l1.62,8.55H36.33l-2.26-9.14A20.31,20.31,0,0,0,32.36,29.21ZM21.94,18.73a9.06,9.06,0,0,1-5.42,1.37H10.45V8.49h6.33A8,8,0,0,1,22.07,10a5.7,5.7,0,0,1,1.74,4.57A4.84,4.84,0,0,1,21.94,18.73Z"/></g></g></svg>