<svg xmlns="http://www.w3.org/2000/svg" viewBox="0 0 35.18 44.91"><defs><style>.cls-1{fill:#f7f8f8;}</style></defs><g id="Layer_2" data-name="Layer 2"><g id="Layer_1-2" data-name="Layer 1"><path class="cls-1" d="M29.89,21.9a23.5,23.5,0,0,0-5.2-2.48q-2.81-.95-5.58-1.73c-1.76-.48-3.29-1-4.58-1.4a9.09,9.09,0,0,1-3-1.6,2.92,2.92,0,0,1-1-2.29,3.44,3.44,0,0,1,.68-2.09,4.51,4.51,0,0,1,2-1.43,9.07,9.07,0,0,1,3.32-.52,9.24,9.24,0,0,1,3.36.55,6,6,0,0,1,2.35,1.6,6.62,6.62,0,0,1,1.39,2.55A10.88,10.88,0,0,1,24,16.52L33.57,15a12.58,12.58,0,0,0-1.68-8.16,13.33,13.33,0,0,0-6.07-5.06,22.12,22.12,0,0,0-9-1.73A22.07,22.07,0,0,0,8.37,1.53,13.16,13.16,0,0,0,2.56,6,11.88,11.88,0,0,0,.47,13.12,10.81,10.81,0,0,0,1.85,18.8,11.38,11.38,0,0,0,5.5,22.52a23.31,23.31,0,0,0,5,2.38q2.75.95,5.52,1.73,2.57.72,4.61,1.44a9.91,9.91,0,0,1,3.19,1.73A3.24,3.24,0,0,1,25,32.38a2.82,2.82,0,0,1-.87,2,5.67,5.67,0,0,1-2.35,1.37,10.81,10.81,0,0,1-3.42.49A10.27,10.27,0,0,1,14,35.41,6.79,6.79,0,0,1,11,32.67a10.21,10.21,0,0,1-1.26-4.86L0,30A15.55,15.55,0,0,0,1,36.13a11.74,11.74,0,0,0,3.32,4.73,15.47,15.47,0,0,0,5.65,3,27.11,27.11,0,0,0,7.9,1,25.91,25.91,0,0,0,9-1.44A13.33,13.33,0,0,0,33,39.17,11.35,11.35,0,0,0,35.18,32a11.85,11.85,0,0,0-1.45-6.14A12,12,0,0,0,29.89,21.9Z"/></g></g></svg>