<svg width="17" height="4" viewBox="0 0 17 4" fill="none" xmlns="http://www.w3.org/2000/svg">
<path d="M0.440079 2.98125C0.410079 2.98125 0.390087 2.97125 0.370087 2.95125C0.350087 2.93125 0.340088 2.91125 0.340088 2.88125C0.340088 2.85125 0.350087 2.83125 0.370087 2.81125C0.390087 2.79125 0.410079 2.78125 0.440079 2.78125C0.470079 2.78125 0.490092 2.79125 0.500092 2.81125C0.510092 2.83125 0.53009 2.85125 0.53009 2.88125C0.53009 2.91125 0.520092 2.93125 0.500092 2.95125C0.480092 2.97125 0.460079 2.98125 0.440079 2.98125ZM0.690079 2.98125C0.660079 2.98125 0.640087 2.97125 0.620087 2.95125C0.600087 2.93125 0.590088 2.91125 0.590088 2.88125C0.590088 2.85125 0.600087 2.83125 0.620087 2.81125C0.640087 2.79125 0.660079 2.78125 0.690079 2.78125C0.720079 2.78125 0.740092 2.79125 0.750092 2.81125C0.760092 2.83125 0.78009 2.85125 0.78009 2.88125C0.78009 2.91125 0.770092 2.93125 0.750092 2.95125C0.740092 2.97125 0.720079 2.98125 0.690079 2.98125Z" fill="white"/>
<path d="M0 2.12391C0 2.09391 -5.49294e-06 2.05391 0.00999451 2.01391C0.0199945 1.97391 0.0299933 1.93391 0.0399933 1.89391C0.0499933 1.85391 0.0699866 1.80391 0.0799866 1.75391L0.209991 1.81391C0.199991 1.85391 0.189993 1.88391 0.179993 1.92391C0.169993 1.95391 0.159988 1.99391 0.159988 2.02391C0.159988 2.05391 0.149994 2.08391 0.149994 2.11391C0.149994 2.17391 0.159987 2.22391 0.189987 2.26391C0.219987 2.30391 0.239993 2.33391 0.289993 2.36391C0.339993 2.39391 0.379993 2.41391 0.429993 2.42391C0.479993 2.43391 0.539991 2.44391 0.599991 2.44391C0.669991 2.44391 0.739988 2.43391 0.799988 2.42391C0.859988 2.41391 0.920001 2.39391 0.970001 2.36391C1.02 2.33391 1.05999 2.31391 1.07999 2.27391C1.09999 2.23391 1.12 2.20391 1.12 2.17391C1.12 2.15391 1.10999 2.14391 1.09999 2.12391C1.08999 2.10391 1.06999 2.09391 1.03999 2.08391C1.00999 2.07391 0.989997 2.05391 0.949997 2.04391C0.909997 2.03391 0.879987 2.01391 0.829987 2.00391L0.869995 1.83391C0.929995 1.86391 0.989993 1.88391 1.03999 1.90391C1.08999 1.92391 1.13 1.93391 1.17 1.94391C1.21 1.95391 1.23999 1.96391 1.26999 1.96391C1.29999 1.96391 1.32 1.97391 1.34 1.97391C1.37 1.97391 1.37999 1.98391 1.39999 1.99391C1.40999 2.01391 1.42 2.02391 1.42 2.05391C1.42 2.08391 1.41 2.09391 1.39 2.11391C1.37 2.13391 1.34999 2.14391 1.31999 2.14391C1.30999 2.14391 1.30999 2.14391 1.29999 2.14391C1.28999 2.14391 1.28 2.14391 1.28 2.14391H1.25999C1.25999 2.15391 1.25999 2.16391 1.26999 2.17391C1.27999 2.18391 1.26999 2.19391 1.26999 2.20391C1.26999 2.25391 1.25 2.30391 1.22 2.35391C1.19 2.40391 1.13999 2.44391 1.07999 2.48391C1.01999 2.52391 0.950001 2.55391 0.860001 2.57391C0.770001 2.59391 0.669998 2.61391 0.559998 2.61391C0.459998 2.61391 0.369993 2.59391 0.289993 2.56391C0.209993 2.53391 0.139996 2.47391 0.0899963 2.40391C0.0399963 2.33391 0 2.23391 0 2.12391Z" fill="white"/>
<path d="M1.51993 2.5125C1.48993 2.5125 1.46993 2.5025 1.45993 2.4825C1.43993 2.4625 1.42993 2.4425 1.42993 2.4125C1.42993 2.3825 1.43993 2.3625 1.45993 2.3425C1.47993 2.3225 1.49993 2.3125 1.51993 2.3125C1.53993 2.3125 1.56993 2.3225 1.57993 2.3425C1.59993 2.3625 1.60994 2.3825 1.60994 2.4125C1.60994 2.4425 1.59993 2.4625 1.57993 2.4825C1.56993 2.5025 1.54993 2.5125 1.51993 2.5125Z" fill="white"/>
<path d="M1.32007 2.13078L1.34007 1.96078C1.40007 1.96078 1.45007 1.96078 1.48007 1.95078C1.52007 1.94078 1.54007 1.92078 1.56007 1.90078C1.58007 1.88078 1.58006 1.84078 1.58006 1.79078C1.58006 1.76078 1.58007 1.71078 1.56007 1.67078C1.55007 1.62078 1.54007 1.57078 1.52007 1.52078C1.50007 1.47078 1.49008 1.41078 1.47008 1.36078L1.62007 1.30078C1.64007 1.34078 1.65006 1.39078 1.66006 1.45078C1.68006 1.51078 1.69007 1.56078 1.70007 1.62078C1.71007 1.67078 1.72008 1.72078 1.72008 1.76078C1.72008 1.82078 1.71007 1.86078 1.70007 1.91078C1.69007 1.95078 1.67007 1.99078 1.65007 2.02078C1.63007 2.05078 1.60007 2.07078 1.57007 2.09078C1.54007 2.11078 1.50007 2.12078 1.45007 2.13078C1.43007 2.12078 1.38007 2.13078 1.32007 2.13078Z" fill="white"/>
<path d="M1.83002 2.60187L1.78003 2.44187C1.87003 2.41187 1.95003 2.37188 2.01003 2.33188C2.07003 2.29188 2.12002 2.24187 2.15002 2.19187C2.19002 2.14187 2.21003 2.09188 2.23003 2.04188C2.24003 1.99188 2.25003 1.94188 2.25003 1.90188C2.25003 1.83188 2.24002 1.76188 2.21002 1.70188C2.18002 1.63188 2.16003 1.57187 2.12003 1.50187L2.26003 1.42188C2.28003 1.47188 2.30002 1.52188 2.32002 1.56188C2.34002 1.61188 2.35003 1.65187 2.37003 1.69187C2.38003 1.73187 2.40002 1.77188 2.40002 1.80188C2.42002 1.86188 2.44003 1.90188 2.47003 1.92188C2.50003 1.94187 2.54003 1.95188 2.59003 1.95188C2.62003 1.95188 2.63002 1.96188 2.65002 1.97188C2.66002 1.99188 2.67003 2.00188 2.67003 2.03188C2.67003 2.06188 2.66003 2.07188 2.64003 2.09188C2.62003 2.11188 2.60002 2.12188 2.57002 2.12188C2.52002 2.12188 2.47002 2.11188 2.44002 2.09188C2.41002 2.07188 2.38003 2.04188 2.36003 2.01188C2.34003 1.98188 2.33002 1.94188 2.32002 1.90188L2.38002 1.94187C2.38002 2.03187 2.36002 2.11187 2.33002 2.19187C2.30002 2.27187 2.25002 2.33187 2.19002 2.39187C2.13002 2.45187 2.07003 2.49188 2.01003 2.53188C1.95003 2.57188 1.89002 2.58187 1.83002 2.60187Z" fill="white"/>
<path d="M2.57007 2.13266L2.59007 1.96266C2.67007 1.96266 2.73007 1.96266 2.77007 1.96266C2.81007 1.96266 2.84008 1.96266 2.86008 1.95266C2.88008 1.94266 2.89007 1.95266 2.90007 1.95266C2.88007 1.94266 2.85007 1.91266 2.82007 1.89266C2.79007 1.86266 2.76007 1.82266 2.74007 1.78266C2.72007 1.73266 2.70007 1.68266 2.70007 1.62266C2.70007 1.54266 2.72008 1.47266 2.75008 1.41266C2.78008 1.35266 2.83008 1.31266 2.89008 1.27266C2.95008 1.24266 3.01007 1.22266 3.09007 1.22266C3.12007 1.22266 3.15007 1.22266 3.18007 1.23266C3.21007 1.24266 3.24007 1.24266 3.27007 1.25266L3.24007 1.41266C3.21007 1.40266 3.19006 1.40266 3.16006 1.39266C3.13006 1.39266 3.11006 1.38266 3.08006 1.38266C3.04006 1.38266 3.00007 1.39266 2.96007 1.41266C2.92007 1.43266 2.90007 1.45266 2.88007 1.49266C2.86007 1.52266 2.85007 1.56266 2.85007 1.61266C2.85007 1.65266 2.86007 1.68266 2.87007 1.71266C2.88007 1.74266 2.90007 1.77266 2.92007 1.79266C2.94007 1.81266 2.97007 1.83266 2.99007 1.85266C3.01007 1.87266 3.04007 1.88266 3.07007 1.88266C3.10007 1.89266 3.12008 1.89266 3.14008 1.89266C3.15008 1.88266 3.17007 1.88266 3.18007 1.88266C3.19007 1.88266 3.21008 1.87266 3.22008 1.86266C3.24008 1.85266 3.26008 1.85266 3.28008 1.83266C3.30008 1.82266 3.33007 1.80266 3.37007 1.79266L3.42007 1.94266C3.34007 1.98266 3.25007 2.01266 3.17007 2.04266C3.08007 2.07266 2.99008 2.09266 2.89008 2.11266C2.81008 2.12266 2.70007 2.13266 2.57007 2.13266Z" fill="white"/>
<path d="M11.2007 2.75935C11.1245 2.75935 11.0556 2.75221 10.9937 2.73794C10.9319 2.72367 10.8784 2.70226 10.8332 2.67372C10.788 2.64399 10.7523 2.60712 10.7261 2.56312C10.7 2.51793 10.6839 2.4656 10.678 2.40613L10.9295 2.32051C10.9331 2.37046 10.9473 2.41208 10.9723 2.44538C10.9973 2.47868 11.0312 2.50365 11.074 2.5203C11.1168 2.53577 11.1644 2.5435 11.2167 2.5435C11.2667 2.5435 11.3083 2.53755 11.3416 2.52566C11.3761 2.51257 11.4016 2.49652 11.4183 2.47749C11.4361 2.45727 11.4451 2.43587 11.4451 2.41327C11.4451 2.38711 11.4338 2.3657 11.4112 2.34905C11.3886 2.33121 11.3576 2.31634 11.3184 2.30445C11.2792 2.29137 11.2334 2.27888 11.181 2.26699C11.1216 2.25272 11.0633 2.23726 11.0062 2.22061C10.9491 2.20396 10.8974 2.18255 10.851 2.15639C10.8046 2.12903 10.7678 2.09454 10.7404 2.05292C10.7131 2.0101 10.6994 1.95659 10.6994 1.89237C10.6994 1.81982 10.7178 1.75679 10.7547 1.70327C10.7915 1.64975 10.8457 1.60813 10.917 1.5784C10.9896 1.54747 11.0782 1.53201 11.1828 1.53201C11.2863 1.53201 11.3743 1.54688 11.4468 1.57661C11.5194 1.60634 11.5753 1.64797 11.6145 1.70149C11.6538 1.75381 11.6752 1.81447 11.6787 1.88345L11.4219 1.95837C11.4219 1.92388 11.4159 1.89355 11.404 1.86739C11.3933 1.84123 11.3779 1.81982 11.3576 1.80317C11.3374 1.78533 11.3125 1.77225 11.2827 1.76392C11.253 1.75441 11.2191 1.74965 11.181 1.74965C11.1358 1.74965 11.0972 1.755 11.0651 1.76571C11.0342 1.77641 11.0104 1.79068 10.9937 1.80852C10.9783 1.82517 10.9705 1.84479 10.9705 1.86739C10.9705 1.89593 10.983 1.91972 11.008 1.93875C11.033 1.95659 11.0663 1.97205 11.1079 1.98513C11.1507 1.99702 11.1977 2.00891 11.2488 2.02081C11.3 2.03151 11.3529 2.04519 11.4076 2.06184C11.4623 2.0773 11.5134 2.09811 11.561 2.12427C11.6086 2.15044 11.6466 2.18612 11.6752 2.23131C11.7049 2.27531 11.7198 2.33121 11.7198 2.399C11.7198 2.47154 11.7002 2.53517 11.6609 2.58988C11.6229 2.6434 11.5652 2.68502 11.4879 2.71475C11.4106 2.74448 11.3148 2.75935 11.2007 2.75935ZM12.1554 2.73438V1.55699H12.4444V2.73438H12.1554ZM11.8111 1.79603V1.55699H12.7905V1.79603H11.8111ZM13.43 2.75935C13.3444 2.75935 13.2671 2.74627 13.1981 2.7201C13.1291 2.69394 13.0697 2.65529 13.0197 2.60415C12.971 2.55301 12.9329 2.48998 12.9056 2.41505C12.8794 2.33894 12.8663 2.25093 12.8663 2.15103C12.8663 2.0107 12.8913 1.89534 12.9412 1.80495C12.9912 1.71338 13.0596 1.645 13.1464 1.5998C13.2332 1.55461 13.3313 1.53201 13.4407 1.53201C13.5252 1.53201 13.6019 1.5451 13.6709 1.57126C13.7398 1.59742 13.7987 1.63608 13.8475 1.68721C13.8974 1.73835 13.9355 1.80257 13.9616 1.87988C13.989 1.95599 14.0027 2.044 14.0027 2.1439C14.0027 2.24737 13.9884 2.33775 13.9599 2.41505C13.9325 2.49117 13.8933 2.55479 13.8421 2.60593C13.7922 2.65707 13.7321 2.69572 13.6619 2.72189C13.5918 2.74686 13.5145 2.75935 13.43 2.75935ZM13.4389 2.53458C13.4972 2.53458 13.546 2.5203 13.5852 2.49176C13.6257 2.46203 13.656 2.41981 13.6762 2.3651C13.6976 2.30921 13.7083 2.24142 13.7083 2.16174C13.7083 2.0773 13.6976 2.00594 13.6762 1.94767C13.6548 1.8882 13.6233 1.8436 13.5817 1.81387C13.5412 1.78295 13.4913 1.76749 13.4318 1.76749C13.3747 1.76749 13.326 1.78236 13.2855 1.81209C13.2451 1.84063 13.2142 1.88345 13.1928 1.94053C13.1714 1.99643 13.1607 2.06541 13.1607 2.14747C13.1607 2.20931 13.1666 2.26461 13.1785 2.31337C13.1916 2.36094 13.2094 2.40138 13.232 2.43468C13.2558 2.46679 13.2849 2.49176 13.3194 2.5096C13.3551 2.52625 13.3949 2.53458 13.4389 2.53458ZM14.207 2.73438V1.55699H14.7083C14.7737 1.55699 14.8332 1.56234 14.8867 1.57304C14.9402 1.58256 14.9872 1.59742 15.0276 1.61764C15.0693 1.63667 15.1043 1.66046 15.1329 1.689C15.1614 1.71635 15.1828 1.74846 15.1971 1.78533C15.2114 1.82101 15.2185 1.86085 15.2185 1.90485C15.2185 1.94648 15.212 1.98394 15.1989 2.01724C15.1858 2.05054 15.1656 2.07968 15.1382 2.10465C15.1121 2.12963 15.0788 2.14984 15.0383 2.1653C14.9991 2.18077 14.9527 2.19206 14.8992 2.1992V2.22596C14.9658 2.23309 15.0175 2.24855 15.0544 2.27234C15.0925 2.29494 15.1216 2.32526 15.1418 2.36332C15.162 2.40138 15.1799 2.44716 15.1953 2.50068L15.2631 2.73438H14.9438L14.8921 2.51852C14.8814 2.47095 14.8665 2.43408 14.8475 2.40792C14.8296 2.38175 14.8064 2.36391 14.7779 2.3544C14.7493 2.3437 14.7137 2.33834 14.6709 2.33834H14.4942V2.73438H14.207ZM14.4942 2.12606H14.6887C14.7612 2.12606 14.8177 2.11179 14.8582 2.08324C14.8986 2.0547 14.9188 2.0101 14.9188 1.94945C14.9188 1.88999 14.9004 1.84598 14.8635 1.81744C14.8267 1.7889 14.7708 1.77463 14.6958 1.77463H14.4942V2.12606ZM15.4387 2.73438V1.55699H15.7277V2.73438H15.4387ZM15.6474 2.73438V2.50247H16.3753V2.73438H15.6474ZM15.6474 2.24558V2.03686H16.2843V2.24558H15.6474ZM15.6474 1.78711V1.55699H16.3699V1.78711H15.6474Z" fill="white"/>
<path d="M8.05978 2.83969C7.20978 2.83969 6.52979 2.14969 6.52979 1.30969C6.52979 1.23969 6.58977 1.17969 6.65977 1.17969C6.72977 1.17969 6.78978 1.23969 6.78978 1.30969C6.78978 2.00969 7.35978 2.57969 8.05978 2.57969C8.75978 2.57969 9.32977 2.00969 9.32977 1.30969C9.32977 1.23969 9.38978 1.17969 9.45978 1.17969C9.52978 1.17969 9.58978 1.23969 9.58978 1.30969C9.58978 2.14969 8.89978 2.83969 8.05978 2.83969Z" fill="white"/>
<path d="M7.46989 1.05062C7.28989 1.05062 7.13989 0.900625 7.13989 0.720625C7.13989 0.540625 7.28989 0.390625 7.46989 0.390625C7.64989 0.390625 7.79988 0.540625 7.79988 0.720625C7.79988 0.900625 7.64989 1.05062 7.46989 1.05062ZM7.46989 0.490625C7.33989 0.490625 7.22989 0.600625 7.22989 0.730625C7.22989 0.860625 7.33989 0.970625 7.46989 0.970625C7.59989 0.970625 7.70988 0.860625 7.70988 0.730625C7.70988 0.600625 7.59989 0.490625 7.46989 0.490625Z" fill="white"/>
<path d="M8.63982 1.05062C8.45982 1.05062 8.30981 0.900625 8.30981 0.720625C8.30981 0.540625 8.45982 0.390625 8.63982 0.390625C8.81982 0.390625 8.96982 0.540625 8.96982 0.720625C8.96982 0.900625 8.81982 1.05062 8.63982 1.05062ZM8.63982 0.490625C8.50982 0.490625 8.39981 0.600625 8.39981 0.730625C8.39981 0.860625 8.50982 0.970625 8.63982 0.970625C8.76982 0.970625 8.87981 0.860625 8.87981 0.730625C8.87981 0.600625 8.76982 0.490625 8.63982 0.490625Z" fill="white"/>
<path d="M7.34982 3.45063C7.50446 3.45063 7.62982 3.32527 7.62982 3.17063C7.62982 3.01599 7.50446 2.89062 7.34982 2.89062C7.19518 2.89062 7.06982 3.01599 7.06982 3.17063C7.06982 3.32527 7.19518 3.45063 7.34982 3.45063Z" fill="white"/>
<path d="M8.75974 3.45063C8.91437 3.45063 9.03973 3.32527 9.03973 3.17063C9.03973 3.01599 8.91437 2.89062 8.75974 2.89062C8.6051 2.89062 8.47974 3.01599 8.47974 3.17063C8.47974 3.32527 8.6051 3.45063 8.75974 3.45063Z" fill="white"/>
<path d="M8.7897 0.999218C8.84493 0.999218 8.88971 0.932062 8.88971 0.849219C8.88971 0.766376 8.84493 0.699219 8.7897 0.699219C8.73447 0.699219 8.6897 0.766376 8.6897 0.849219C8.6897 0.932062 8.73447 0.999218 8.7897 0.999218Z" fill="white"/>
<path d="M7.58975 0.999218C7.64498 0.999218 7.68974 0.932062 7.68974 0.849219C7.68974 0.766376 7.64498 0.699219 7.58975 0.699219C7.53452 0.699219 7.48975 0.766376 7.48975 0.849219C7.48975 0.932062 7.53452 0.999218 7.58975 0.999218Z" fill="white"/>
<path d="M8.08989 1.80234C8.20035 1.80234 8.28989 1.7128 8.28989 1.60234C8.28989 1.49189 8.20035 1.40234 8.08989 1.40234C7.97943 1.40234 7.88989 1.49189 7.88989 1.60234C7.88989 1.7128 7.97943 1.80234 8.08989 1.80234Z" fill="white"/>
<path d="M4.8898 0H4.78979V3.7H4.8898V0Z" fill="white"/>
</svg>
